<svg xmlns="http://www.w3.org/2000/svg" xmlns:xlink="http://www.w3.org/1999/xlink" contentStyleType="text/css" height="786px" preserveAspectRatio="none" style="width:1951px;height:786px;background:#FFFFFF;" version="1.1" viewBox="0 0 1951 786" width="1951px" zoomAndPan="magnify"><defs/><g><!--cluster 63c14c243adb89094af33203e27a204e--><g id="cluster_63c14c243adb89094af33203e27a204e"><polygon fill="none" points="16,140.74,26,130.74,339,130.74,339,660.22,329,670.22,16,670.22,16,140.74" style="stroke:#181818;stroke-width:1.0;"/><line style="stroke:#181818;stroke-width:1.0;" x1="329" x2="339" y1="140.74" y2="130.74"/><line style="stroke:#181818;stroke-width:1.0;" x1="16" x2="329" y1="140.74" y2="140.74"/><line style="stroke:#181818;stroke-width:1.0;" x1="329" x2="329" y1="140.74" y2="670.22"/><text fill="#000000" font-family="sans-serif" font-size="14" font-weight="bold" lengthAdjust="spacing" textLength="65" x="141" y="156.7351">Mysql80</text></g><!--cluster c6b2148720c14fb58871f480a7cc042e--><g id="cluster_c6b2148720c14fb58871f480a7cc042e"><polygon fill="none" points="379,140.74,389,130.74,721,130.74,721,287.93,711,297.93,379,297.93,379,140.74" style="stroke:#181818;stroke-width:1.0;"/><line style="stroke:#181818;stroke-width:1.0;" x1="711" x2="721" y1="140.74" y2="130.74"/><line style="stroke:#181818;stroke-width:1.0;" x1="379" x2="711" y1="140.74" y2="140.74"/><line style="stroke:#181818;stroke-width:1.0;" x1="711" x2="711" y1="140.74" y2="297.93"/><text fill="#000000" font-family="sans-serif" font-size="14" font-weight="bold" lengthAdjust="spacing" textLength="84" x="504" y="156.7351">Memcache</text></g><!--cluster d2a57dc1d883fd21fb9951699df71cc7--><g id="cluster_d2a57dc1d883fd21fb9951699df71cc7"><polygon fill="none" points="761,140.74,771,130.74,1220,130.74,1220,660.22,1210,670.22,761,670.22,761,140.74" style="stroke:#181818;stroke-width:1.0;"/><line style="stroke:#181818;stroke-width:1.0;" x1="1210" x2="1220" y1="140.74" y2="130.74"/><line style="stroke:#181818;stroke-width:1.0;" x1="761" x2="1210" y1="140.74" y2="140.74"/><line style="stroke:#181818;stroke-width:1.0;" x1="1210" x2="1210" y1="140.74" y2="670.22"/><text fill="#000000" font-family="sans-serif" font-size="14" font-weight="bold" lengthAdjust="spacing" textLength="31" x="971" y="156.7351">App</text></g><!--cluster b61822e8357dcaff77eaaccf348d9134--><g id="cluster_b61822e8357dcaff77eaaccf348d9134"><polygon fill="none" points="1423,132.59,1433,122.59,1934,122.59,1934,660.22,1924,670.22,1423,670.22,1423,132.59" style="stroke:#181818;stroke-width:1.0;"/><line style="stroke:#181818;stroke-width:1.0;" x1="1924" x2="1934" y1="132.59" y2="122.59"/><line style="stroke:#181818;stroke-width:1.0;" x1="1423" x2="1924" y1="132.59" y2="132.59"/><line style="stroke:#181818;stroke-width:1.0;" x1="1924" x2="1924" y1="132.59" y2="670.22"/><text fill="#000000" font-family="sans-serif" font-size="14" font-weight="bold" lengthAdjust="spacing" textLength="58" x="1645.5" y="148.5851">Worker</text></g><!--entity dc78b6e9e5f17426b4de5b6b03c4cc49--><g id="elem_dc78b6e9e5f17426b4de5b6b03c4cc49"><rect fill="#F1F1F1" height="95.1875" rx="2.5" ry="2.5" style="stroke:#181818;stroke-width:0.5;" width="256" x="40" y="178.74"/><rect fill="#F1F1F1" height="10" style="stroke:#181818;stroke-width:0.5;" width="15" x="276" y="183.74"/><rect fill="#F1F1F1" height="2" style="stroke:#181818;stroke-width:0.5;" width="4" x="274" y="185.74"/><rect fill="#F1F1F1" height="2" style="stroke:#181818;stroke-width:0.5;" width="4" x="274" y="189.74"/><text fill="#000000" font-family="sans-serif" font-size="14" font-weight="bold" lengthAdjust="spacing" textLength="216" x="55" y="211.7351">enterprise_access.mysql80</text><text fill="#000000" font-family="sans-serif" font-size="14" lengthAdjust="spacing" textLength="4" x="55" y="228.032">&#160;</text><text fill="#000000" font-family="sans-serif" font-size="14" lengthAdjust="spacing" textLength="187" x="55" y="244.3289">image: mysql:8.0.33-oracle</text><text fill="#000000" font-family="sans-serif" font-size="14" lengthAdjust="spacing" textLength="4" x="55" y="260.6257">&#160;</text></g><!--entity 6d319dd792074a1e2720dd8e29296490--><g id="elem_6d319dd792074a1e2720dd8e29296490"><rect fill="#F1F1F1" height="39.2969" rx="2.5" ry="2.5" style="stroke:#181818;stroke-width:0.5;" width="120" x="108" y="606.93"/><polygon fill="#F1F1F1" points="211,611.93,211,625.93,223,625.93,223,617.93,217,611.93,211,611.93" style="stroke:#181818;stroke-width:0.5;"/><line style="stroke:#181818;stroke-width:0.5;" x1="217" x2="217" y1="611.93" y2="617.93"/><line style="stroke:#181818;stroke-width:0.5;" x1="223" x2="217" y1="617.93" y2="617.93"/><text fill="#000000" font-family="sans-serif" font-size="14" lengthAdjust="spacing" textLength="90" x="118" y="632.9251">/var/lib/mysql</text></g><!--entity 9d5f2b0560a81ed7e5a544cb496fc78c--><g id="elem_9d5f2b0560a81ed7e5a544cb496fc78c"><rect fill="#F1F1F1" height="95.1875" rx="2.5" ry="2.5" style="stroke:#181818;stroke-width:0.5;" width="275" x="402.5" y="178.74"/><rect fill="#F1F1F1" height="10" style="stroke:#181818;stroke-width:0.5;" width="15" x="657.5" y="183.74"/><rect fill="#F1F1F1" height="2" style="stroke:#181818;stroke-width:0.5;" width="4" x="655.5" y="185.74"/><rect fill="#F1F1F1" height="2" style="stroke:#181818;stroke-width:0.5;" width="4" x="655.5" y="189.74"/><text fill="#000000" font-family="sans-serif" font-size="14" font-weight="bold" lengthAdjust="spacing" textLength="235" x="417.5" y="211.7351">enterprise_access.memcache</text><text fill="#000000" font-family="sans-serif" font-size="14" lengthAdjust="spacing" textLength="4" x="417.5" y="228.032">&#160;</text><text fill="#000000" font-family="sans-serif" font-size="14" lengthAdjust="spacing" textLength="186" x="417.5" y="244.3289">image: memcached:1.6.28</text><text fill="#000000" font-family="sans-serif" font-size="14" lengthAdjust="spacing" textLength="4" x="417.5" y="260.6257">&#160;</text></g><!--entity ae103cc0b0e348da8364dba173ed2783--><g id="elem_ae103cc0b0e348da8364dba173ed2783"><rect fill="#F1F1F1" height="95.1875" rx="2.5" ry="2.5" style="stroke:#181818;stroke-width:0.5;" width="392" x="785" y="178.74"/><rect fill="#F1F1F1" height="10" style="stroke:#181818;stroke-width:0.5;" width="15" x="1157" y="183.74"/><rect fill="#F1F1F1" height="2" style="stroke:#181818;stroke-width:0.5;" width="4" x="1155" y="185.74"/><rect fill="#F1F1F1" height="2" style="stroke:#181818;stroke-width:0.5;" width="4" x="1155" y="189.74"/><text fill="#000000" font-family="sans-serif" font-size="14" font-weight="bold" lengthAdjust="spacing" textLength="179" x="800" y="211.7351">enterprise_access.app</text><text fill="#000000" font-family="sans-serif" font-size="14" lengthAdjust="spacing" textLength="4" x="800" y="228.032">&#160;</text><text fill="#000000" font-family="sans-serif" font-size="14" lengthAdjust="spacing" textLength="352" x="800" y="244.3289">image: openedx/enterprise-access:latest-devstack</text><text fill="#000000" font-family="sans-serif" font-size="14" lengthAdjust="spacing" textLength="4" x="800" y="260.6257">&#160;</text></g><!--entity 895d90ece83802a3979d3aed1de854b3--><g id="elem_895d90ece83802a3979d3aed1de854b3"><ellipse cx="1122" cy="381.93" fill="#F1F1F1" rx="8" ry="8" style="stroke:#181818;stroke-width:0.5;"/><text fill="#000000" font-family="sans-serif" font-size="14" lengthAdjust="spacing" textLength="45" x="1099.5" y="411.9251">18270</text></g><!--entity dbb6ad993ff58ef5e802240b55a10ed4--><g id="elem_dbb6ad993ff58ef5e802240b55a10ed4"><rect fill="#F1F1F1" height="39.2969" rx="2.5" ry="2.5" style="stroke:#181818;stroke-width:0.5;" width="226" x="951" y="606.93"/><polygon fill="#F1F1F1" points="1160,611.93,1160,625.93,1172,625.93,1172,617.93,1166,611.93,1160,611.93" style="stroke:#181818;stroke-width:0.5;"/><line style="stroke:#181818;stroke-width:0.5;" x1="1166" x2="1166" y1="611.93" y2="617.93"/><line style="stroke:#181818;stroke-width:0.5;" x1="1172" x2="1166" y1="617.93" y2="617.93"/><text fill="#000000" font-family="sans-serif" font-size="14" lengthAdjust="spacing" textLength="196" x="961" y="632.9251">/edx/app/enterprise-access/</text></g><!--entity 76c9f138ecd0f7b0a0f54cf393f672c4--><g id="elem_76c9f138ecd0f7b0a0f54cf393f672c4"><rect fill="#F1F1F1" height="39.2969" rx="2.5" ry="2.5" style="stroke:#181818;stroke-width:0.5;" width="86" x="830" y="606.93"/><polygon fill="#F1F1F1" points="899,611.93,899,625.93,911,625.93,911,617.93,905,611.93,899,611.93" style="stroke:#181818;stroke-width:0.5;"/><line style="stroke:#181818;stroke-width:0.5;" x1="905" x2="905" y1="611.93" y2="617.93"/><line style="stroke:#181818;stroke-width:0.5;" x1="911" x2="905" y1="617.93" y2="617.93"/><text fill="#000000" font-family="sans-serif" font-size="14" lengthAdjust="spacing" textLength="56" x="840" y="632.9251">/edx/src</text></g><!--entity 1b5a3de112216a8b4df206791cec2143--><g id="elem_1b5a3de112216a8b4df206791cec2143"><rect fill="#F1F1F1" height="111.4844" rx="2.5" ry="2.5" style="stroke:#181818;stroke-width:0.5;" width="443" x="1447.5" y="170.59"/><rect fill="#F1F1F1" height="10" style="stroke:#181818;stroke-width:0.5;" width="15" x="1870.5" y="175.59"/><rect fill="#F1F1F1" height="2" style="stroke:#181818;stroke-width:0.5;" width="4" x="1868.5" y="177.59"/><rect fill="#F1F1F1" height="2" style="stroke:#181818;stroke-width:0.5;" width="4" x="1868.5" y="181.59"/><text fill="#000000" font-family="sans-serif" font-size="14" font-weight="bold" lengthAdjust="spacing" textLength="207" x="1462.5" y="203.5851">enterprise_access.worker</text><text fill="#000000" font-family="sans-serif" font-size="14" lengthAdjust="spacing" textLength="4" x="1462.5" y="219.882">&#160;</text><text fill="#000000" font-family="sans-serif" font-size="14" lengthAdjust="spacing" textLength="403" x="1462.5" y="236.1789">image: openedx/enterprise-access.worker:latest-devstack</text><text fill="#000000" font-family="sans-serif" font-size="14" lengthAdjust="spacing" textLength="99" x="1462.5" y="252.4757">restart: always</text><text fill="#000000" font-family="sans-serif" font-size="14" lengthAdjust="spacing" textLength="4" x="1462.5" y="268.7726">&#160;</text></g><!--entity 537ae11bd3da9902327a23161dfd66e6--><g id="elem_537ae11bd3da9902327a23161dfd66e6"><ellipse cx="1567" cy="381.93" fill="#F1F1F1" rx="8" ry="8" style="stroke:#181818;stroke-width:0.5;"/><text fill="#000000" font-family="sans-serif" font-size="14" lengthAdjust="spacing" textLength="45" x="1544.5" y="411.9251">18271</text></g><!--entity 13c2eda5b3069735ac563448e9d4c8a6--><g id="elem_13c2eda5b3069735ac563448e9d4c8a6"><rect fill="#F1F1F1" height="39.2969" rx="2.5" ry="2.5" style="stroke:#181818;stroke-width:0.5;" width="226" x="1501" y="606.93"/><polygon fill="#F1F1F1" points="1710,611.93,1710,625.93,1722,625.93,1722,617.93,1716,611.93,1710,611.93" style="stroke:#181818;stroke-width:0.5;"/><line style="stroke:#181818;stroke-width:0.5;" x1="1716" x2="1716" y1="611.93" y2="617.93"/><line style="stroke:#181818;stroke-width:0.5;" x1="1722" x2="1716" y1="617.93" y2="617.93"/><text fill="#000000" font-family="sans-serif" font-size="14" lengthAdjust="spacing" textLength="196" x="1511" y="632.9251">/edx/app/enterprise-access/</text></g><!--entity a67da8c208f767de76f0feeaf782c995--><g id="elem_a67da8c208f767de76f0feeaf782c995"><polygon fill="#F1F1F1" points="761.5,16,771.5,6,934.5,6,934.5,58.5938,924.5,68.5938,761.5,68.5938,761.5,16" style="stroke:#181818;stroke-width:0.5;"/><line style="stroke:#181818;stroke-width:0.5;" x1="924.5" x2="934.5" y1="16" y2="6"/><line style="stroke:#181818;stroke-width:0.5;" x1="761.5" x2="924.5" y1="16" y2="16"/><line style="stroke:#181818;stroke-width:0.5;" x1="924.5" x2="924.5" y1="16" y2="68.5938"/><text fill="#000000" font-family="sans-serif" font-size="14" font-weight="bold" lengthAdjust="spacing" textLength="133" x="776.5" y="38.9951">devstack_default</text><text fill="#000000" font-family="sans-serif" font-size="14" lengthAdjust="spacing" textLength="74" x="776.5" y="55.292">&#171;network&#187;</text></g><!--entity 1a38f50273cd063175aef9ad7b1c6bc3--><g id="elem_1a38f50273cd063175aef9ad7b1c6bc3"><rect fill="#F1F1F1" height="39.2969" rx="2.5" ry="2.5" style="stroke:#181818;stroke-width:0.5;" width="222" x="57" y="741.22"/><polygon fill="#F1F1F1" points="262,746.22,262,760.22,274,760.22,274,752.22,268,746.22,262,746.22" style="stroke:#181818;stroke-width:0.5;"/><line style="stroke:#181818;stroke-width:0.5;" x1="268" x2="268" y1="746.22" y2="752.22"/><line style="stroke:#181818;stroke-width:0.5;" x1="274" x2="268" y1="752.22" y2="752.22"/><text fill="#000000" font-family="sans-serif" font-size="14" lengthAdjust="spacing" textLength="192" x="67" y="767.2151">enterprise_access_mysql80</text></g><!--entity 58b9e70b65a77700ba66e9c64d6b9f89--><g id="elem_58b9e70b65a77700ba66e9c64d6b9f89"><rect fill="#F1F1F1" height="39.2969" rx="2.5" ry="2.5" style="stroke:#181818;stroke-width:0.5;" width="34" x="1322" y="741.22"/><polygon fill="#F1F1F1" points="1339,746.22,1339,760.22,1351,760.22,1351,752.22,1345,746.22,1339,746.22" style="stroke:#181818;stroke-width:0.5;"/><line style="stroke:#181818;stroke-width:0.5;" x1="1345" x2="1345" y1="746.22" y2="752.22"/><line style="stroke:#181818;stroke-width:0.5;" x1="1351" x2="1345" y1="752.22" y2="752.22"/><text fill="#000000" font-family="sans-serif" font-size="14" lengthAdjust="spacing" textLength="4" x="1332" y="767.2151">.</text></g><!--entity 8453fa75c645a337ff0c631b9510fc28--><g id="elem_8453fa75c645a337ff0c631b9510fc28"><rect fill="#F1F1F1" height="39.2969" rx="2.5" ry="2.5" style="stroke:#181818;stroke-width:0.5;" width="64" x="841" y="741.22"/><polygon fill="#F1F1F1" points="888,746.22,888,760.22,900,760.22,900,752.22,894,746.22,888,746.22" style="stroke:#181818;stroke-width:0.5;"/><line style="stroke:#181818;stroke-width:0.5;" x1="894" x2="894" y1="746.22" y2="752.22"/><line style="stroke:#181818;stroke-width:0.5;" x1="900" x2="894" y1="752.22" y2="752.22"/><text fill="#000000" font-family="sans-serif" font-size="14" lengthAdjust="spacing" textLength="34" x="851" y="767.2151">../src</text></g><!--entity dc877b4216c9c842595ce28097fbee88--><g id="elem_dc877b4216c9c842595ce28097fbee88"><ellipse cx="1274" cy="516.93" fill="#F1F1F1" rx="8" ry="8" style="stroke:#181818;stroke-width:0.5;"/><text fill="#000000" font-family="sans-serif" font-size="14" lengthAdjust="spacing" textLength="45" x="1251.5" y="546.9251">18270</text></g><!--entity d64c1e41496c9f5bedd8060ac7db2283--><g id="elem_d64c1e41496c9f5bedd8060ac7db2283"><ellipse cx="1369" cy="516.93" fill="#F1F1F1" rx="8" ry="8" style="stroke:#181818;stroke-width:0.5;"/><text fill="#000000" font-family="sans-serif" font-size="14" lengthAdjust="spacing" textLength="45" x="1346.5" y="546.9251">18271</text></g><!--link 6d319dd792074a1e2720dd8e29296490 to 1a38f50273cd063175aef9ad7b1c6bc3--><g id="link_6d319dd792074a1e2720dd8e29296490_1a38f50273cd063175aef9ad7b1c6bc3"><path codeLine="47" d="M168,646.53 C168,671.68 168,715.82 168,740.95 " fill="none" id="6d319dd792074a1e2720dd8e29296490-1a38f50273cd063175aef9ad7b1c6bc3" style="stroke:#181818;stroke-width:1.0;"/><text fill="#000000" font-family="sans-serif" font-size="13" lengthAdjust="spacing" textLength="14" x="169" y="707.2869">rw</text></g><!--link dc78b6e9e5f17426b4de5b6b03c4cc49 to 6d319dd792074a1e2720dd8e29296490--><g id="link_dc78b6e9e5f17426b4de5b6b03c4cc49_6d319dd792074a1e2720dd8e29296490"><path codeLine="48" d="M168,274.19 C168,361.78 168,540.87 168,600.58 " fill="none" id="dc78b6e9e5f17426b4de5b6b03c4cc49-to-6d319dd792074a1e2720dd8e29296490" style="stroke:#181818;stroke-width:1.0;stroke-dasharray:7.0,7.0;"/><polygon fill="#181818" points="168,606.58,172,597.58,168,601.58,164,597.58,168,606.58" style="stroke:#181818;stroke-width:1.0;"/><text fill="#000000" font-family="sans-serif" font-size="13" lengthAdjust="spacing" textLength="23" x="169" y="453.9969">use</text></g><!--reverse link a67da8c208f767de76f0feeaf782c995 to 63c14c243adb89094af33203e27a204e--><g id="link_a67da8c208f767de76f0feeaf782c995_63c14c243adb89094af33203e27a204e"><path codeLine="49" d="M755.3078,41.8249 C638.5578,47.7649 444.74,63.73 387,106.59 C363.94,123.71 350.015,152.7425 341.8188,177.8137 C340.7942,180.9477 339.8592,184.0197 339.007,186.9988 " fill="none" id="a67da8c208f767de76f0feeaf782c995-backto-63c14c243adb89094af33203e27a204e" style="stroke:#181818;stroke-width:1.0;"/><polygon fill="#181818" points="761.3,41.52,752.1084,37.9825,756.3065,41.7741,752.5149,45.9721,761.3,41.52" style="stroke:#181818;stroke-width:1.0;"/></g><!--reverse link a67da8c208f767de76f0feeaf782c995 to c6b2148720c14fb58871f480a7cc042e--><g id="link_a67da8c208f767de76f0feeaf782c995_c6b2148720c14fb58871f480a7cc042e"><path codeLine="50" d="M801.3223,72.9351 C788.3823,83.7851 779.41,92.87 769,106.59 C751.635,129.465 737.7975,158.5875 728.2225,182.2662 C725.8288,188.1859 723.7014,193.7654 721.852,198.8219 C721.6208,199.454 721.3939,200.0779 721.1715,200.6933 C721.1158,200.8471 721.0605,201.0004 721.0054,201.1532 " fill="none" id="a67da8c208f767de76f0feeaf782c995-backto-c6b2148720c14fb58871f480a7cc042e" style="stroke:#181818;stroke-width:1.0;"/><polygon fill="#181818" points="805.92,69.08,796.4535,71.7975,802.0886,72.2926,801.5936,77.9277,805.92,69.08" style="stroke:#181818;stroke-width:1.0;"/></g><!--link ae103cc0b0e348da8364dba173ed2783 to 895d90ece83802a3979d3aed1de854b3--><g id="link_ae103cc0b0e348da8364dba173ed2783_895d90ece83802a3979d3aed1de854b3"><path codeLine="51" d="M1024.07,274.25 C1056.63,309.72 1098.43,355.25 1114.89,373.18 " fill="none" id="ae103cc0b0e348da8364dba173ed2783-895d90ece83802a3979d3aed1de854b3" style="stroke:#181818;stroke-width:1.0;"/></g><!--link 895d90ece83802a3979d3aed1de854b3 to dc877b4216c9c842595ce28097fbee88--><g id="link_895d90ece83802a3979d3aed1de854b3_dc877b4216c9c842595ce28097fbee88"><path codeLine="52" d="M1130.61,390.46 C1157.24,413.76 1238.1,484.51 1265.11,508.15 " fill="none" id="895d90ece83802a3979d3aed1de854b3-dc877b4216c9c842595ce28097fbee88" style="stroke:#181818;stroke-width:1.0;"/></g><!--link dbb6ad993ff58ef5e802240b55a10ed4 to 58b9e70b65a77700ba66e9c64d6b9f89--><g id="link_dbb6ad993ff58ef5e802240b55a10ed4_58b9e70b65a77700ba66e9c64d6b9f89"><path codeLine="53" d="M1103.69,646.67 C1164.53,675.94 1278.33,730.68 1321.65,751.52 " fill="none" id="dbb6ad993ff58ef5e802240b55a10ed4-58b9e70b65a77700ba66e9c64d6b9f89" style="stroke:#181818;stroke-width:1.0;"/><text fill="#000000" font-family="sans-serif" font-size="13" lengthAdjust="spacing" textLength="14" x="1235" y="707.2869">rw</text></g><!--link ae103cc0b0e348da8364dba173ed2783 to dbb6ad993ff58ef5e802240b55a10ed4--><g id="link_ae103cc0b0e348da8364dba173ed2783_dbb6ad993ff58ef5e802240b55a10ed4"><path codeLine="54" d="M990.77,274.19 C1009.02,361.78 1046.3762,540.9961 1058.8162,600.7061 " fill="none" id="ae103cc0b0e348da8364dba173ed2783-to-dbb6ad993ff58ef5e802240b55a10ed4" style="stroke:#181818;stroke-width:1.0;stroke-dasharray:7.0,7.0;"/><polygon fill="#181818" points="1060.04,606.58,1062.1203,596.9533,1059.0202,601.6851,1054.2884,598.585,1060.04,606.58" style="stroke:#181818;stroke-width:1.0;"/><text fill="#000000" font-family="sans-serif" font-size="13" lengthAdjust="spacing" textLength="23" x="1029" y="453.9969">use</text></g><!--link 76c9f138ecd0f7b0a0f54cf393f672c4 to 8453fa75c645a337ff0c631b9510fc28--><g id="link_76c9f138ecd0f7b0a0f54cf393f672c4_8453fa75c645a337ff0c631b9510fc28"><path codeLine="55" d="M873,646.53 C873,671.68 873,715.82 873,740.95 " fill="none" id="76c9f138ecd0f7b0a0f54cf393f672c4-8453fa75c645a337ff0c631b9510fc28" style="stroke:#181818;stroke-width:1.0;"/><text fill="#000000" font-family="sans-serif" font-size="13" lengthAdjust="spacing" textLength="14" x="874" y="707.2869">rw</text></g><!--link ae103cc0b0e348da8364dba173ed2783 to 76c9f138ecd0f7b0a0f54cf393f672c4--><g id="link_ae103cc0b0e348da8364dba173ed2783_76c9f138ecd0f7b0a0f54cf393f672c4"><path codeLine="56" d="M968.29,274.19 C944.54,361.78 895.9102,541.0791 879.7202,600.7891 " fill="none" id="ae103cc0b0e348da8364dba173ed2783-to-76c9f138ecd0f7b0a0f54cf393f672c4" style="stroke:#181818;stroke-width:1.0;stroke-dasharray:7.0,7.0;"/><polygon fill="#181818" points="878.15,606.58,884.3659,598.9404,879.4585,601.7542,876.6446,596.8469,878.15,606.58" style="stroke:#181818;stroke-width:1.0;"/><text fill="#000000" font-family="sans-serif" font-size="13" lengthAdjust="spacing" textLength="23" x="923" y="453.9969">use</text></g><!--reverse link a67da8c208f767de76f0feeaf782c995 to d2a57dc1d883fd21fb9951699df71cc7--><g id="link_a67da8c208f767de76f0feeaf782c995_d2a57dc1d883fd21fb9951699df71cc7"><path codeLine="57" d="M940.9257,44.8795 C1031.2057,53.0295 1158.09,70.38 1193,106.59 C1197.5638,111.325 1201.292,116.6925 1204.3213,122.4652 C1205.0787,123.9083 1205.7923,125.3768 1206.4644,126.8671 C1206.8005,127.6122 1207.1261,128.3628 1207.4417,129.1183 C1207.5994,129.4961 1207.7547,129.8751 1207.9074,130.2554 " fill="none" id="a67da8c208f767de76f0feeaf782c995-backto-d2a57dc1d883fd21fb9951699df71cc7" style="stroke:#181818;stroke-width:1.0;"/><polygon fill="#181818" points="934.95,44.34,943.5539,49.133,939.9297,44.7895,944.2732,41.1654,934.95,44.34" style="stroke:#181818;stroke-width:1.0;"/></g><!--link 1b5a3de112216a8b4df206791cec2143 to 537ae11bd3da9902327a23161dfd66e6--><g id="link_1b5a3de112216a8b4df206791cec2143_537ae11bd3da9902327a23161dfd66e6"><path codeLine="58" d="M1632.46,282.35 C1609.94,316.26 1583.32,356.36 1572.24,373.04 " fill="none" id="1b5a3de112216a8b4df206791cec2143-537ae11bd3da9902327a23161dfd66e6" style="stroke:#181818;stroke-width:1.0;"/></g><!--link 537ae11bd3da9902327a23161dfd66e6 to d64c1e41496c9f5bedd8060ac7db2283--><g id="link_537ae11bd3da9902327a23161dfd66e6_d64c1e41496c9f5bedd8060ac7db2283"><path codeLine="59" d="M1558.24,388.81 C1525.46,410.83 1410.27,488.2 1377.66,510.11 " fill="none" id="537ae11bd3da9902327a23161dfd66e6-d64c1e41496c9f5bedd8060ac7db2283" style="stroke:#181818;stroke-width:1.0;"/></g><!--link 13c2eda5b3069735ac563448e9d4c8a6 to 58b9e70b65a77700ba66e9c64d6b9f89--><g id="link_13c2eda5b3069735ac563448e9d4c8a6_58b9e70b65a77700ba66e9c64d6b9f89"><path codeLine="60" d="M1574.31,646.67 C1513.47,675.94 1399.67,730.68 1356.35,751.52 " fill="none" id="13c2eda5b3069735ac563448e9d4c8a6-58b9e70b65a77700ba66e9c64d6b9f89" style="stroke:#181818;stroke-width:1.0;"/><text fill="#000000" font-family="sans-serif" font-size="13" lengthAdjust="spacing" textLength="14" x="1469" y="707.2869">rw</text></g><!--link 1b5a3de112216a8b4df206791cec2143 to 13c2eda5b3069735ac563448e9d4c8a6--><g id="link_1b5a3de112216a8b4df206791cec2143_13c2eda5b3069735ac563448e9d4c8a6"><path codeLine="61" d="M1661.41,282.29 C1648.92,372.76 1625.4209,542.8664 1617.4309,600.7164 " fill="none" id="1b5a3de112216a8b4df206791cec2143-to-13c2eda5b3069735ac563448e9d4c8a6" style="stroke:#181818;stroke-width:1.0;stroke-dasharray:7.0,7.0;"/><polygon fill="#181818" points="1616.61,606.66,1621.8037,598.2919,1617.2941,601.707,1613.879,597.1974,1616.61,606.66" style="stroke:#181818;stroke-width:1.0;"/><text fill="#000000" font-family="sans-serif" font-size="13" lengthAdjust="spacing" textLength="23" x="1640" y="453.9969">use</text></g><!--reverse link a67da8c208f767de76f0feeaf782c995 to b61822e8357dcaff77eaaccf348d9134--><g id="link_a67da8c208f767de76f0feeaf782c995_b61822e8357dcaff77eaaccf348d9134"><path codeLine="62" d="M940.78,37.787 C1181.01,37.267 1835.8,41.8 1907,106.59 C1911.8638,111.0163 1915.8183,116.1511 1919.0137,121.7531 C1919.1135,121.9282 1919.2127,122.1037 1919.311,122.2797 " fill="none" id="a67da8c208f767de76f0feeaf782c995-backto-b61822e8357dcaff77eaaccf348d9134" style="stroke:#181818;stroke-width:1.0;"/><polygon fill="#181818" points="934.78,37.8,943.7886,41.7805,939.78,37.7892,943.7713,33.7805,934.78,37.8" style="stroke:#181818;stroke-width:1.0;"/></g><!--SRC=[bLNBZXit4BpFLmnqYWLebkyc1MC1Vq3EEIJ1ejdTj0Nh5KbhsGZoxw56agtTnOAxDsdGxAwgBXPnkTmSLullY_NdRhrXwIVJASkt_G7fwmDBmSVbOJhzQ_tnureEnytkw_tzfCTzZm4O8naL2zIV0g6e8e85eg6K_ANPxp_s_ooZ6ey4IzgHSHOvnwIImsAjKLOCe55E-d-xdZQhxMOjwqFF1347IUAB1cT2TYm-XwmiEIAN-Z-xwRGMocwxM-pb0ObalnzMvu7JQTSjLlXPvltuPHu7DLWxs-oGbj9rVtUuEomAqg6Vt7t3tTroaU_6oZDKjZenGp8A7EgAq2ZcA2QP55nItNzNVh8Yf2yodgAGZNQnrbQY9ViOGHSN5GAHSkOPmSI-cAnyK1YrC8X7xnnbbqAftEarWfU9jmmldtYkXp2OUA9t1VXfknsniK4FJ9fZj8MDBhakIOUKk80cWgVOK7JLcLHMObsiYxR1SKODLjX0jAzWm-ts1jPcAslXxtU_wcRdklaI3x8_pAu-E-7zxKC_qT70sIenUKvAIAADog1DaDYYi6Q9tcLxkxtJY3huvPYxC_6S0t9AjXGVfNYf3OrJsNlKIjWzRxNVqNWE0gMYRHHYLI0hLCKxAhOs2c38_LJuZtefP3UUoQ5IC1NqIMei1K2mOYad3PEsxgd8EdkqB5eRemF6Ql1YL82aIQZww3MHZ-Eyj-XyANqXzwx-gwpdFIwF-6D_AxyUUNWBrG4wisLCIHbxkg5M1ys5Gv3m3lcr9IECFbiL4bYFv8DrBafYHn53bV5NinTa7rOt-Q7HnkAL0LjN4gm6Zr8ICcHTRnxTcc8uquWv2QWSF0A0KXah-4JLoY6d4jFjWU7dugFpjY3uMbVtOw4KHNLQhjT55QgtwwbLcI90TdM5b2WwuvCdCL4bA5aancVISd2anUbwowk_V9OQAwf6005dOwBjMj7JptZMbAAVzvFTST8rGtGOU1ZkctbtwlUubqdNpF3Pu-o-_JWqa_9jRPenTTAgcIMjWh5BSysjd1cxj1nvtLkJs6LlpQ7NlRNIxAnKm_dlHTSSUaNNV9pUPeTce8uhQ6LRg-1iXzOrRkNUk-pG97OHl3dqAdZpeNgJuFy3]--></g></svg>